<svg width="849" height="413" viewBox="0 0 849 413" fill="none" xmlns="http://www.w3.org/2000/svg">
<path d="M224.256 0.650175H251.524C325.854 0.650175 370.189 25.7972 384.53 76.0911C389.378 92.6538 391.802 111.64 391.802 133.051V413H224.256V0.650175ZM0.660051 133.051C0.660051 88.4121 10.8602 55.6907 31.2606 34.8864C53.6808 12.0623 90.2398 0.650175 140.938 0.650175H168.206V413H0.660051V133.051ZM449.379 0.650175H612.38V412.394H449.379V0.650175ZM662.674 112.751C662.674 68.1127 673.985 38.1182 696.607 22.7674C718.017 8.42655 758.313 1.25613 817.494 1.25613H848.095V58.5185C848.095 104.167 836.481 136.686 813.253 156.077C789.621 175.467 748.921 185.162 691.154 185.162H662.674V112.751ZM662.674 216.672H691.154C748.113 216.672 788.813 227.983 813.253 250.605C836.481 272.217 848.095 306.353 848.095 353.011V413H817.494C759.525 413 719.229 404.315 696.607 386.944C673.985 369.372 662.674 337.862 662.674 292.416V216.672Z" fill="black"/>
</svg>
