<svg width="56" height="50" viewBox="0 0 56 50" fill="none" xmlns="http://www.w3.org/2000/svg">
<g clip-path="url(#clip0_182_1837)">
<mask id="mask0_182_1837" style="mask-type:alpha" maskUnits="userSpaceOnUse" x="0" y="12" width="55" height="29">
<path d="M0.51273 40.8354L8.64854 12.4268H19.0962L27.1875 40.8354H20.1631L14.1391 17.006H13.6278L7.53709 40.8354H0.51273ZM7.42594 34.1445L7.42594 28.7429H20.2298L20.2298 34.1445H7.42594ZM46.3732 40.8354L38.2152 28.3872H36.4813L36.4813 24.2082H38.2152L46.262 12.4268H54.1311L44.0614 26.6978L44.0614 25.1418L54.4423 40.8354H46.3732ZM30.2794 40.8354L30.2794 12.4268L37.1704 12.4268L37.1704 40.8354H30.2794Z" fill="black"/>
</mask>
<g mask="url(#mask0_182_1837)">
<g filter="url(#filter0_f_182_1837)">
<rect width="59.1052" height="53.3549" transform="matrix(1 0 2.66557e-05 1 7.49512 -7.1167)" fill="url(#paint0_linear_182_1837)"/>
<rect width="59.1052" height="53.3549" transform="matrix(1 0 2.66557e-05 1 7.49512 -7.1167)" fill="url(#paint1_radial_182_1837)" style="mix-blend-mode:overlay"/>
</g>
<g opacity="0.5">
<rect width="59.1052" height="53.3549" transform="matrix(1 0 2.66557e-05 1 -4.41455 -6.10376)" fill="url(#paint2_linear_182_1837)"/>
<rect width="59.1052" height="53.3549" transform="matrix(1 0 2.66557e-05 1 -4.41455 -6.10376)" fill="url(#paint3_radial_182_1837)" style="mix-blend-mode:overlay"/>
</g>
<path d="M0.511267 40.8354L8.64707 12.4268H19.0947L27.186 40.8354H20.1617L14.1376 17.006H13.6264L7.53562 40.8354H0.511267ZM7.42448 34.1445V28.7429H20.2284V34.1445H7.42448ZM46.3717 40.8354L38.2137 28.3872H36.4798V24.2082H38.2137L46.2606 12.4268H54.1296L44.0599 26.6978V25.1418L54.4409 40.8354H46.3717ZM30.278 40.8354V12.4268H37.1689V40.8354H30.278Z" fill="black" fill-opacity="0.3"/>
</g>
</g>
<defs>
<filter id="filter0_f_182_1837" x="2.78178" y="-11.83" width="68.5331" height="62.7816" filterUnits="userSpaceOnUse" color-interpolation-filters="sRGB">
<feFlood flood-opacity="0" result="BackgroundImageFix"/>
<feBlend mode="normal" in="SourceGraphic" in2="BackgroundImageFix" result="shape"/>
<feGaussianBlur stdDeviation="2.35667" result="effect1_foregroundBlur_182_1837"/>
</filter>
<linearGradient id="paint0_linear_182_1837" x1="-1.62927e-07" y1="35.35" x2="60.9366" y2="16.2096" gradientUnits="userSpaceOnUse">
<stop offset="0.0677083" stop-color="#4D5455"/>
<stop offset="0.21875" stop-color="#9EA1A1"/>
<stop offset="0.453125" stop-color="#848B8A"/>
<stop offset="0.524381" stop-color="#535D5E"/>
<stop offset="0.796875" stop-color="#4B5355"/>
<stop offset="0.895833" stop-color="#757A7B"/>
<stop offset="1" stop-color="#4D5455"/>
</linearGradient>
<radialGradient id="paint1_radial_182_1837" cx="0" cy="0" r="1" gradientUnits="userSpaceOnUse" gradientTransform="translate(-1.30296e-06 -4.61907) rotate(57.5984) scale(50.577 56.0279)">
<stop stop-color="white"/>
<stop offset="1" stop-color="white" stop-opacity="0"/>
</radialGradient>
<linearGradient id="paint2_linear_182_1837" x1="-6.99954e-07" y1="35.35" x2="58.8582" y2="12.7727" gradientUnits="userSpaceOnUse">
<stop offset="0.0677083" stop-color="#4D5455"/>
<stop offset="0.21875" stop-color="#9EA1A1"/>
<stop offset="0.453125" stop-color="#848B8A"/>
<stop offset="0.524381" stop-color="#535D5E"/>
<stop offset="0.796875" stop-color="#4B5355"/>
<stop offset="0.895833" stop-color="#757A7B"/>
<stop offset="1" stop-color="#4D5455"/>
</linearGradient>
<radialGradient id="paint3_radial_182_1837" cx="0" cy="0" r="1" gradientUnits="userSpaceOnUse" gradientTransform="translate(-1.30296e-06 -4.61907) rotate(57.5984) scale(50.577 56.0279)">
<stop stop-color="white"/>
<stop offset="1" stop-color="white" stop-opacity="0"/>
</radialGradient>
<clipPath id="clip0_182_1837">
<rect width="55.043" height="48.3293" fill="white" transform="matrix(1 0 2.66557e-05 1 0 0.835449)"/>
</clipPath>
</defs>
</svg>
